<?xml version="1.0" encoding="UTF-8"?>
<svg id="Layer_1" data-name="Layer 1" xmlns="http://www.w3.org/2000/svg" xmlns:xlink="http://www.w3.org/1999/xlink" viewBox="0 0 1000 350">
  <defs>
    <style>
      .cls-1 {
        fill: #ffbf3c;
      }

      .cls-2 {
        fill: url(#linear-gradient);
        opacity: .5;
      }
    </style>
    <linearGradient id="linear-gradient" x1="429.87" y1="202.62" x2="429.87" y2="169.64" gradientUnits="userSpaceOnUse">
      <stop offset="0" stop-color="#f9ae42" stop-opacity="0"/>
      <stop offset=".46" stop-color="#c48b34" stop-opacity=".5"/>
      <stop offset=".82" stop-color="#9f722b" stop-opacity=".86"/>
      <stop offset="1" stop-color="#916928"/>
    </linearGradient>
  </defs>
  <path d="M247.58,113.96h21.37v96.97h60.15v18.08h-81.52v-115.05Z"/>
  <path d="M771.67,229.01l-.17-76.26-37.8,63.11h-9.53l-37.8-62.12v75.27h-20.38v-115.05h17.59l45.69,76.26,44.87-76.26h17.58l.16,115.05h-20.21Z"/>
  <polygon points="144.81 113.96 123.77 113.96 72 229.01 94.02 229.01 104.5 204.42 104.5 204.41 105.36 202.39 105.37 202.39 114.79 180.49 134.13 135.33 155.82 185.62 122.65 185.62 137 202.39 162.89 202.39 174.39 229.01 196.74 229.01 144.81 113.96"/>
  <g>
    <polygon points="605.22 161.79 560.06 161.79 575.19 179.38 605.22 179.38 605.22 161.79"/>
    <polygon points="550.23 211.1 550.23 192.58 550.23 179.38 550.23 161.79 550.23 141.18 550.23 131.88 612.85 131.88 612.85 113.96 528.86 113.96 528.86 229.01 615.15 229.01 615.15 211.1 550.23 211.1"/>
  </g>
  <g>
    <polygon points="864.08 211.1 864.08 192.58 864.08 179.38 864.08 161.79 864.08 141.18 864.08 131.88 926.7 131.88 926.7 113.96 842.72 113.96 842.72 229.01 929 229.01 929 211.1 864.08 211.1"/>
    <polygon points="919.23 162 874.08 162 889.2 179.59 919.23 179.59 919.23 162"/>
  </g>
  <g>
    <polygon points="402.49 161.61 402.49 113.79 379.94 113.79 379.94 228.83 402.49 228.83 402.49 205.46 402.49 199.41 402.49 172.79 402.49 161.61"/>
    <polygon class="cls-1" points="431.15 169.67 476.28 113.79 448.58 113.79 406.76 164.48 406.76 164.47 402.49 169.64 450.32 228.83 478.02 228.83 431.15 169.67"/>
    <polygon class="cls-2" points="431.15 169.66 431.17 169.64 402.49 169.64 429.14 202.62 457.26 202.62 431.15 169.66"/>
  </g>
</svg>