<?xml version="1.0" encoding="UTF-8"?>
<svg id="Layer_1" data-name="Layer 1" xmlns="http://www.w3.org/2000/svg" xmlns:xlink="http://www.w3.org/1999/xlink" viewBox="0 0 1000 350">
  <defs>
    <style>
      .cls-1 {
        fill: #ffbf3c;
      }

      .cls-2 {
        fill: #231f20;
      }

      .cls-3 {
        fill: url(#linear-gradient);
        opacity: .5;
      }
    </style>
    <linearGradient id="linear-gradient" x1="429.87" y1="184.15" x2="429.87" y2="151.41" gradientUnits="userSpaceOnUse">
      <stop offset="0" stop-color="#f9ad42" stop-opacity="0"/>
      <stop offset=".45" stop-color="#c48b35" stop-opacity=".5"/>
      <stop offset=".82" stop-color="#9e722b" stop-opacity=".86"/>
      <stop offset="1" stop-color="#906928"/>
    </linearGradient>
  </defs>
  <path class="cls-2" d="M78.89,227.02v26.76h-4.39v-26.76h4.39Z"/>
  <g>
    <path d="M248.85,96.12h21.22v96.29h59.73v17.95h-80.95v-114.24Z"/>
    <path d="M769.27,210.36l-.17-75.73-37.53,62.67h-9.47l-37.54-61.69v74.75h-20.24v-114.24h17.46l45.37,75.73,44.56-75.73h17.46l.16,114.24h-20.07Z"/>
    <polygon points="146.8 96.12 125.91 96.12 74.5 210.36 96.37 210.36 106.77 185.94 106.77 185.93 107.63 183.92 107.64 183.92 116.99 162.18 136.19 117.34 157.73 167.28 124.8 167.28 139.04 183.92 164.75 183.92 176.17 210.36 198.37 210.36 146.8 96.12"/>
    <g>
      <polygon points="603.98 143.61 559.14 143.61 574.17 161.08 603.98 161.08 603.98 143.61"/>
      <polygon points="549.38 192.57 549.38 174.19 549.38 161.08 549.38 143.61 549.38 123.15 549.38 113.91 611.56 113.91 611.56 96.12 528.16 96.12 528.16 210.36 613.84 210.36 613.84 192.57 549.38 192.57"/>
    </g>
    <g>
      <polygon points="861.04 192.57 861.04 174.19 861.04 161.08 861.04 143.61 861.04 123.15 861.04 113.91 923.22 113.91 923.22 96.12 839.82 96.12 839.82 210.36 925.5 210.36 925.5 192.57 861.04 192.57"/>
      <polygon points="915.8 143.82 870.96 143.82 885.98 161.28 915.8 161.28 915.8 143.82"/>
    </g>
    <g>
      <polygon points="402.67 143.43 402.67 95.94 380.28 95.94 380.28 210.19 402.67 210.19 402.67 186.98 402.67 180.97 402.67 154.53 402.67 143.43"/>
      <g>
        <polygon class="cls-1" points="431.14 151.43 475.95 95.94 448.44 95.94 406.91 146.28 406.91 146.27 402.67 151.41 450.17 210.19 477.68 210.19 431.14 151.43"/>
        <polygon class="cls-3" points="431.14 151.43 431.16 151.41 402.67 151.41 429.14 184.15 457.06 184.15 431.14 151.43"/>
      </g>
    </g>
    <path class="cls-2" d="M133.22,253.79h-4.39l-13.21-19.99v19.99h-4.39v-26.8h4.39l13.21,19.95v-19.95h4.39v26.8Z"/>
    <path class="cls-2" d="M169.54,253.11c-1.44-.63-2.57-1.52-3.39-2.68-.82-1.16-1.23-2.5-1.23-4.04h4.7c.1,1.15.56,2.11,1.37,2.85s1.94,1.12,3.41,1.12,2.7-.37,3.54-1.1c.85-.73,1.27-1.67,1.27-2.83,0-.9-.26-1.63-.79-2.2-.53-.56-1.18-1-1.96-1.31-.78-.31-1.87-.64-3.25-1-1.75-.46-3.16-.93-4.25-1.41-1.09-.47-2.02-1.21-2.79-2.21-.77-1-1.15-2.34-1.15-4,0-1.54.39-2.89,1.15-4.04.77-1.15,1.85-2.04,3.24-2.66s2.99-.92,4.81-.92c2.59,0,4.72.65,6.37,1.94s2.57,3.07,2.75,5.33h-4.85c-.08-.98-.54-1.81-1.39-2.5-.85-.69-1.96-1.04-3.35-1.04-1.26,0-2.29.32-3.08.96-.8.64-1.19,1.57-1.19,2.77,0,.82.25,1.5.75,2.02.5.53,1.14.94,1.91,1.25.77.31,1.82.64,3.16,1,1.77.49,3.22.98,4.33,1.46,1.12.49,2.07,1.24,2.85,2.25s1.18,2.37,1.18,4.06c0,1.36-.37,2.64-1.1,3.85-.73,1.21-1.8,2.18-3.19,2.91-1.4.73-3.05,1.1-4.95,1.1-1.8,0-3.41-.31-4.85-.94Z"/>
    <path class="cls-2" d="M219.75,227.02v17.06c0,2.03.53,3.55,1.6,4.58,1.07,1.03,2.55,1.54,4.45,1.54s3.42-.51,4.49-1.54c1.07-1.03,1.6-2.55,1.6-4.58v-17.06h4.39v16.98c0,2.18-.48,4.03-1.42,5.55-.95,1.51-2.22,2.64-3.81,3.39-1.59.75-3.35,1.12-5.28,1.12s-3.68-.37-5.26-1.12c-1.58-.74-2.83-1.87-3.76-3.39s-1.39-3.36-1.39-5.55v-16.98h4.39Z"/>
    <path class="cls-2" d="M282.44,253.79l-6.16-10.71h-3.35v10.71h-4.39v-26.76h9.24c2.05,0,3.79.36,5.22,1.08,1.43.72,2.49,1.68,3.2,2.89.71,1.21,1.06,2.55,1.06,4.04,0,1.75-.5,3.33-1.52,4.76-1.01,1.42-2.57,2.39-4.68,2.91l6.62,11.09h-5.24ZM272.93,239.58h4.85c1.64,0,2.88-.41,3.71-1.23.84-.82,1.25-1.93,1.25-3.31s-.41-2.47-1.23-3.25c-.82-.78-2.07-1.18-3.73-1.18h-4.85v8.97Z"/>
    <path class="cls-2" d="M335.58,248.32h-11.21l-1.93,5.47h-4.58l9.59-26.8h5.08l9.59,26.8h-4.62l-1.93-5.47ZM334.34,244.74l-4.35-12.44-4.39,12.44h8.74Z"/>
    <path class="cls-2" d="M394.84,253.79h-4.39l-13.21-19.99v19.99h-4.39v-26.8h4.39l13.21,19.95v-19.95h4.39v26.8Z"/>
    <path class="cls-2" d="M427.55,233.3c1.22-2.08,2.88-3.7,4.97-4.87,2.09-1.17,4.38-1.75,6.87-1.75,2.85,0,5.38.7,7.6,2.1s3.83,3.38,4.83,5.95h-5.28c-.69-1.41-1.65-2.46-2.89-3.16-1.23-.69-2.66-1.04-4.27-1.04-1.77,0-3.35.4-4.74,1.19-1.39.8-2.47,1.94-3.25,3.43-.78,1.49-1.17,3.22-1.17,5.2s.39,3.71,1.17,5.2c.78,1.49,1.87,2.64,3.25,3.45s2.97,1.21,4.74,1.21c1.62,0,3.04-.35,4.27-1.04s2.19-1.74,2.89-3.16h5.28c-1,2.57-2.61,4.54-4.83,5.93s-4.75,2.08-7.6,2.08c-2.52,0-4.81-.58-6.89-1.75-2.08-1.17-3.73-2.79-4.95-4.87-1.22-2.08-1.83-4.43-1.83-7.05s.61-4.97,1.83-7.05Z"/>
    <path class="cls-2" d="M487.91,230.57v7.86h9.24v3.58h-9.24v8.2h10.39v3.58h-14.79v-26.8h14.79v3.58h-10.39Z"/>
    <path class="cls-2" d="M570.81,253.11c-1.44-.63-2.57-1.52-3.39-2.68-.82-1.16-1.23-2.5-1.23-4.04h4.7c.1,1.15.56,2.11,1.37,2.85s1.94,1.12,3.41,1.12,2.7-.37,3.54-1.1,1.27-1.67,1.27-2.83c0-.9-.26-1.63-.79-2.2-.53-.56-1.18-1-1.96-1.31-.78-.31-1.87-.64-3.25-1-1.75-.46-3.16-.93-4.25-1.41-1.09-.47-2.02-1.21-2.79-2.21-.77-1-1.15-2.34-1.15-4,0-1.54.39-2.89,1.15-4.04.77-1.15,1.85-2.04,3.23-2.66,1.39-.62,2.99-.92,4.81-.92,2.59,0,4.72.65,6.37,1.94,1.66,1.3,2.57,3.07,2.75,5.33h-4.85c-.08-.98-.54-1.81-1.39-2.5-.85-.69-1.96-1.04-3.35-1.04-1.26,0-2.28.32-3.08.96-.8.64-1.2,1.57-1.2,2.77,0,.82.25,1.5.75,2.02.5.53,1.14.94,1.9,1.25.77.31,1.82.64,3.16,1,1.77.49,3.22.98,4.33,1.46,1.11.49,2.07,1.24,2.85,2.25.78,1.01,1.17,2.37,1.17,4.06,0,1.36-.37,2.64-1.1,3.85-.73,1.21-1.8,2.18-3.2,2.91-1.4.73-3.05,1.1-4.95,1.1-1.8,0-3.41-.31-4.85-.94Z"/>
    <path class="cls-2" d="M621.06,230.57v7.86h9.24v3.58h-9.24v8.2h10.39v3.58h-14.79v-26.8h14.79v3.58h-10.39Z"/>
    <path class="cls-2" d="M677.32,253.79l-6.16-10.71h-3.35v10.71h-4.39v-26.76h9.24c2.05,0,3.79.36,5.22,1.08,1.43.72,2.49,1.68,3.2,2.89.71,1.21,1.06,2.55,1.06,4.04,0,1.75-.5,3.33-1.52,4.76-1.01,1.42-2.57,2.39-4.68,2.91l6.62,11.09h-5.24ZM667.81,239.58h4.85c1.64,0,2.88-.41,3.71-1.23.84-.82,1.25-1.93,1.25-3.31s-.41-2.47-1.23-3.25-2.07-1.18-3.73-1.18h-4.85v8.97Z"/>
    <path class="cls-2" d="M737.39,227.02l-10.05,26.76h-5.08l-10.09-26.76h4.7l7.93,22.26,7.97-22.26h4.62Z"/>
    <path class="cls-2" d="M772.01,227.02v26.76h-4.39v-26.76h4.39Z"/>
    <path class="cls-2" d="M804.72,233.3c1.22-2.08,2.88-3.7,4.97-4.87,2.09-1.17,4.38-1.75,6.87-1.75,2.85,0,5.38.7,7.6,2.1s3.83,3.38,4.83,5.95h-5.28c-.69-1.41-1.65-2.46-2.89-3.16-1.23-.69-2.66-1.04-4.27-1.04-1.77,0-3.35.4-4.74,1.19-1.39.8-2.47,1.94-3.25,3.43-.78,1.49-1.17,3.22-1.17,5.2s.39,3.71,1.17,5.2c.78,1.49,1.87,2.64,3.25,3.45s2.97,1.21,4.74,1.21c1.62,0,3.04-.35,4.27-1.04s2.19-1.74,2.89-3.16h5.28c-1,2.57-2.61,4.54-4.83,5.93s-4.75,2.08-7.6,2.08c-2.52,0-4.81-.58-6.89-1.75-2.08-1.17-3.73-2.79-4.95-4.87-1.22-2.08-1.83-4.43-1.83-7.05s.61-4.97,1.83-7.05Z"/>
    <path class="cls-2" d="M865.08,230.57v7.86h9.24v3.58h-9.24v8.2h10.39v3.58h-14.79v-26.8h14.79v3.58h-10.39Z"/>
    <path class="cls-2" d="M911.41,253.11c-1.44-.63-2.57-1.52-3.39-2.68-.82-1.16-1.23-2.5-1.23-4.04h4.7c.1,1.15.56,2.11,1.37,2.85s1.94,1.12,3.41,1.12,2.7-.37,3.54-1.1,1.27-1.67,1.27-2.83c0-.9-.26-1.63-.79-2.2-.53-.56-1.18-1-1.96-1.31-.78-.31-1.87-.64-3.25-1-1.75-.46-3.16-.93-4.25-1.41-1.09-.47-2.02-1.21-2.79-2.21-.77-1-1.15-2.34-1.15-4,0-1.54.39-2.89,1.15-4.04.77-1.15,1.85-2.04,3.23-2.66,1.39-.62,2.99-.92,4.81-.92,2.59,0,4.72.65,6.37,1.94,1.66,1.3,2.57,3.07,2.75,5.33h-4.85c-.08-.98-.54-1.81-1.39-2.5-.85-.69-1.96-1.04-3.35-1.04-1.26,0-2.28.32-3.08.96-.8.64-1.2,1.57-1.2,2.77,0,.82.25,1.5.75,2.02.5.53,1.14.94,1.9,1.25.77.31,1.82.64,3.16,1,1.77.49,3.22.98,4.33,1.46,1.11.49,2.07,1.24,2.85,2.25.78,1.01,1.17,2.37,1.17,4.06,0,1.36-.37,2.64-1.1,3.85-.73,1.21-1.8,2.18-3.2,2.91-1.4.73-3.05,1.1-4.95,1.1-1.8,0-3.41-.31-4.85-.94Z"/>
  </g>
</svg>